<?xml version="1.0" encoding="UTF-8" standalone="no"?>
<!DOCTYPE svg PUBLIC "-//W3C//DTD SVG 1.1//EN" "http://www.w3.org/Graphics/SVG/1.1/DTD/svg11.dtd">
<svg width="100%" height="100%" viewBox="0 0 120 120" version="1.1" xmlns="http://www.w3.org/2000/svg" xmlns:xlink="http://www.w3.org/1999/xlink" xml:space="preserve" xmlns:serif="http://www.serif.com/" style="fill-rule:evenodd;clip-rule:evenodd;stroke-linecap:round;stroke-linejoin:round;stroke-miterlimit:1.5;">
    <g transform="matrix(1,0,0,1,0,-1)">
        <rect x="11" y="14" width="99" height="92" style="fill:rgb(191,191,191);stroke:black;stroke-width:1.3px;"/>
    </g>
    <rect x="19" y="39" width="83" height="58" style="fill:rgb(249,249,249);stroke:rgb(78,78,78);stroke-width:1.2px;"/>
    <g id="Code">
        <g transform="matrix(0.843137,0,0,1.5,4.235294,-22)">
            <rect x="27" y="48" width="51" height="2"/>
        </g>
        <g transform="matrix(0.215686,0,0,1.5,66.176471,-22)">
            <rect x="27" y="48" width="51" height="2"/>
        </g>
        <g transform="matrix(0.921569,0,0,1.5,2.117647,-14)">
            <rect x="27" y="48" width="51" height="2"/>
        </g>
        <g transform="matrix(0.862745,0,0,1.5,3.705882,-6)">
            <rect x="27" y="48" width="51" height="2"/>
        </g>
        <g transform="matrix(0.137255,0,0,1.5,69.294118,-6)">
            <rect x="27" y="48" width="51" height="2"/>
        </g>
        <g transform="matrix(0.490196,0,0,1.5,37.764706,2)">
            <rect x="27" y="48" width="51" height="2"/>
        </g>
        <g transform="matrix(0.431373,0,0,1.5,15.352941,2)">
            <rect x="27" y="48" width="51" height="2"/>
        </g>
        <g transform="matrix(1.078431,0,0,1.5,-2.117647,10)">
            <rect x="27" y="48" width="51" height="2"/>
        </g>
    </g>
    <g transform="matrix(1,0,0,1,0,1)">
        <rect x="18" y="19" width="85" height="12" style="fill:rgb(35,0,136);"/>
    </g>
    <g id="Buttons" transform="matrix(1,0,0,1,-2,0)">
        <rect x="75" y="22" width="10" height="10"/>
        <rect x="75" y="22" width="8" height="8" style="fill:rgb(191,191,191);"/>
        <g transform="matrix(1,0,0,1,10,0)">
            <rect x="75" y="22" width="10" height="10"/>
        </g>
        <g transform="matrix(1,0,0,1,10,0)">
            <rect x="75" y="22" width="8" height="8" style="fill:rgb(191,191,191);"/>
        </g>
        <g transform="matrix(1,0,0,1,20,0)">
            <rect x="75" y="22" width="10" height="10"/>
        </g>
        <g transform="matrix(1,0,0,1,20,0)">
            <rect x="75" y="22" width="8" height="8" style="fill:rgb(191,191,191);"/>
        </g>
    </g>
    <g id="WindowsLogo" transform="matrix(1,0,0,1,-21,0)">
        <g transform="matrix(1,0,0,1,21,0)">
            <rect x="26" y="26" width="6" height="6" style="fill:rgb(0,131,0);"/>
        </g>
        <g transform="matrix(1,0,0,1,21,-6)">
            <rect x="26" y="26" width="6" height="6" style="fill:rgb(123,130,0);"/>
        </g>
        <g transform="matrix(1,0,0,1,15,0)">
            <rect x="26" y="26" width="6" height="6" style="fill:rgb(64,52,255);"/>
        </g>
        <g transform="matrix(1,0,0,1,15,-6)">
            <rect x="26" y="26" width="6" height="6" style="fill:rgb(129,0,0);"/>
        </g>
        <g transform="matrix(0.666667,0,0,0.666667,29.666667,8.666667)">
            <rect x="26" y="26" width="6" height="6" style="fill:rgb(0,255,0);"/>
        </g>
        <g transform="matrix(0.666667,0,0,0.666667,29.666667,2.666667)">
            <rect x="26" y="26" width="6" height="6" style="fill:rgb(246,255,0);"/>
        </g>
        <g transform="matrix(0.666667,0,0,0.666667,23.666667,8.666667)">
            <rect x="26" y="26" width="6" height="6" style="fill:rgb(0,255,255);"/>
        </g>
        <g transform="matrix(0.666667,0,0,0.666667,23.666667,2.666667)">
            <rect x="26" y="26" width="6" height="6" style="fill:rgb(250,0,3);"/>
        </g>
    </g>
</svg>
